<mxfile host="app.diagrams.net" modified="2021-05-27T06:47:05.757Z" agent="5.0 (Windows NT 10.0; WOW64) AppleWebKit/537.36 (KHTML, like Gecko) Chrome/83.0.4103.61 Safari/537.36" etag="j_Ha2XNl5CqF9eQSMz3q" version="14.7.2" type="github">
  <diagram id="prtHgNgQTEPvFCAcTncT" name="Page-1">
    <mxGraphModel dx="1422" dy="762" grid="1" gridSize="10" guides="1" tooltips="1" connect="1" arrows="1" fold="1" page="1" pageScale="1" pageWidth="827" pageHeight="1169" math="0" shadow="0">
      <root>
        <mxCell id="0" />
        <mxCell id="1" parent="0" />
        <mxCell id="oqtWspu6S1NtVfHB8yN6-6" style="edgeStyle=orthogonalEdgeStyle;rounded=0;orthogonalLoop=1;jettySize=auto;html=1;entryX=0.5;entryY=0;entryDx=0;entryDy=0;" edge="1" parent="1" source="oqtWspu6S1NtVfHB8yN6-1" target="oqtWspu6S1NtVfHB8yN6-5">
          <mxGeometry relative="1" as="geometry" />
        </mxCell>
        <mxCell id="oqtWspu6S1NtVfHB8yN6-1" value="SNS" style="rounded=1;whiteSpace=wrap;html=1;fillColor=#dae8fc;strokeColor=#6c8ebf;shadow=1;glass=1;sketch=1;" vertex="1" parent="1">
          <mxGeometry x="320" y="140" width="120" height="50" as="geometry" />
        </mxCell>
        <mxCell id="oqtWspu6S1NtVfHB8yN6-5" value="" style="rounded=0;whiteSpace=wrap;html=1;shadow=1;glass=1;sketch=1;" vertex="1" parent="1">
          <mxGeometry x="60" y="240" width="120" height="60" as="geometry" />
        </mxCell>
      </root>
    </mxGraphModel>
  </diagram>
</mxfile>
